# xmcd CD database file
#
# Track frame offsets:
#	150
#	21595
#	32073
#	60469
#	77423
#	96455
#	120620
#	140376
#	156721
#	164689
#	189594
#	201496
#	226956
#
# Disc length: 3109 seconds
#
# Revision: 0
# Processed by: cddbd v1.5.2PL0 Copyright (c) Steve Scherf et al.
# Submitted via: Feurio! 1.68 - http://www.feurio.com
#
DISCID=ba0c230d
DTITLE=B.B. King - Fillmore East   New York City, NY   06-19-71   Disc 2
DYEAR=1900
DGENRE=
TTITLE0=instrumental
TTITLE1=Every Day I( Have The Blues)
TTITLE2=How Blue Can You Get
TTITLE3=instrumental
TTITLE4=A Whole Lotta Lovin'
TTITLE5=Nobody Loves Me But My Mother
TTITLE6=Hummingbird
TTITLE7=instrumental
TTITLE8=intros
TTITLE9=Sweet Sixteen
TTITLE10=instrumental
TTITLE11=The Thrill Is Gone
TTITLE12=instrumental
EXTD=
EXTT0=
EXTT1=
EXTT2=
EXTT3=
EXTT4=
EXTT5=
EXTT6=
EXTT7=
EXTT8=
EXTT9=
EXTT10=
EXTT11=
EXTT12=
PLAYORDER=
